<?xml version="1.0" standalone="no"?><!DOCTYPE svg PUBLIC "-//W3C//DTD SVG 1.1//EN" "http://www.w3.org/Graphics/SVG/1.1/DTD/svg11.dtd"><svg t="1779324875241" class="icon" viewBox="0 0 1024 1024" version="1.1" xmlns="http://www.w3.org/2000/svg" p-id="15668" xmlns:xlink="http://www.w3.org/1999/xlink" width="200" height="200"><path d="M494.08 558.08c51.2-2.56 97.28 35.84 99.84 87.04 0 23.04-10.24 43.52-25.6 58.88 15.36 15.36 25.6 35.84 25.6 58.88-7.68 56.32-61.44 94.72-117.76 84.48-43.52-7.68-79.36-40.96-84.48-84.48h58.88c0 15.36 20.48 28.16 43.52 28.16s43.52-12.8 43.52-28.16-20.48-28.16-43.52-28.16h-43.52v-58.88h43.52c23.04 0 43.52-12.8 43.52-28.16s-20.48-33.28-43.52-33.28-43.52 12.8-43.52 28.16h-58.88c5.12-51.2 51.2-89.6 102.4-84.48z m217.6 0c79.36 0 143.36 64 143.36 143.36S791.04 844.8 711.68 844.8h-87.04V558.08h87.04z m0 56.32h-28.16v174.08h28.16c48.64 0 87.04-38.4 87.04-87.04-2.56-48.64-40.96-87.04-87.04-87.04zM499.2 156.16c5.12-2.56 12.8-2.56 20.48 0l317.44 115.2c2.56 0 5.12 2.56 7.68 2.56l2.56 2.56c2.56 0 2.56 2.56 5.12 5.12 0 0 0 2.56 2.56 2.56 0 2.56 2.56 2.56 2.56 5.12v268.8l-58.88-28.16v-189.44L537.6 432.64v94.72h-58.88v-94.72L220.16 337.92v322.56l143.36 61.44v64L179.2 706.56c-10.24-5.12-17.92-15.36-17.92-25.6v-384-7.68-2.56c0-2.56 2.56-2.56 2.56-5.12 0 0 0-2.56 2.56-2.56 0-2.56 2.56-2.56 5.12-5.12l2.56-2.56c2.56-2.56 5.12-2.56 7.68-2.56l317.44-112.64z m10.24 56.32l-232.96 84.48 232.96 84.48 232.96-84.48-232.96-84.48z" p-id="15669" fill="#e6e6e6"></path></svg>