<?xml version="1.0" encoding="UTF-8" standalone="no"?>
<!DOCTYPE svg PUBLIC "-//W3C//DTD SVG 1.1//EN" "http://www.w3.org/Graphics/SVG/1.1/DTD/svg11.dtd">
<svg width="100%" height="100%" viewBox="0 0 4761 1084" version="1.1" xmlns="http://www.w3.org/2000/svg" xmlns:xlink="http://www.w3.org/1999/xlink" xml:space="preserve" xmlns:serif="http://www.serif.com/" style="fill-rule:evenodd;clip-rule:evenodd;stroke-linejoin:round;stroke-miterlimit:2;">
    <g transform="matrix(1,0,0,1,-319.521,-39.7775)">
        <g transform="matrix(1,0,0,1,314.313,34.5695)">
            <path d="M8.333,1067.776L8.333,26.796L215.677,26.796L462.075,763.861C484.798,832.502 501.366,883.865 511.781,917.949C523.616,880.078 542.078,824.455 567.167,751.08L816.406,26.796L1001.737,26.796L1001.737,1067.776L868.952,1067.776L868.952,196.506L566.457,1067.776L442.193,1067.776L141.118,181.594L141.118,1067.776L8.333,1067.776Z" style="fill:white;fill-rule:nonzero;stroke:white;stroke-width:6.25px;"/>
        </g>
    </g>
    <g transform="matrix(1,0,0,1,-319.521,-39.7775)">
        <g transform="matrix(1,0,0,1,314.313,34.5695)">
            <rect x="1247.426" y="26.795" width="137.756" height="1040.98" style="fill:white;stroke:white;stroke-width:6.25px;"/>
        </g>
    </g>
    <g transform="matrix(1,0,0,1,-319.521,-39.7775)">
        <g transform="matrix(1,0,0,1,314.313,34.5695)">
            <path d="M1626.61,1067.776L1626.61,26.796L1767.916,26.796L2314.679,844.1L2314.679,26.796L2446.754,26.796L2446.754,1067.776L2305.448,1067.776L1758.685,249.762L1758.685,1067.776L1626.61,1067.776Z" style="fill:white;fill-rule:nonzero;stroke:white;stroke-width:6.25px;"/>
        </g>
    </g>
    <g transform="matrix(1,0,0,1,-319.521,-39.7775)">
        <g transform="matrix(1,0,0,1,314.313,34.5695)">
            <path d="M3165.357,659.48L3165.357,537.344L3606.318,536.634L3606.318,922.919C3538.624,976.885 3468.799,1017.478 3396.844,1044.698C3324.889,1071.918 3251.041,1085.528 3175.298,1085.528C3073.046,1085.528 2980.144,1063.634 2896.591,1019.845C2813.038,976.057 2749.959,912.741 2707.354,829.898C2664.749,747.055 2643.447,654.508 2643.447,552.256C2643.447,450.951 2664.631,356.392 2706.999,268.578C2749.367,180.765 2810.316,115.555 2889.845,72.95C2969.374,30.345 3060.975,9.043 3164.647,9.043C3239.916,9.043 3307.965,21.233 3368.796,45.612C3429.626,69.991 3477.32,103.957 3511.878,147.509C3546.435,191.061 3572.708,247.867 3590.697,317.929L3466.433,352.013C3450.811,298.994 3431.402,257.335 3408.206,227.039C3385.01,196.742 3351.873,172.481 3308.795,154.256C3265.717,136.031 3217.905,126.918 3165.358,126.918C3102.397,126.918 3047.958,136.504 3002.039,155.676C2956.12,174.848 2919.078,200.056 2890.911,231.3C2862.744,262.544 2840.85,296.864 2825.228,334.262C2798.718,398.643 2785.463,468.467 2785.463,543.736C2785.463,636.52 2801.44,714.156 2833.394,776.643C2865.348,839.13 2911.858,885.522 2972.925,915.819C3033.992,946.116 3098.846,961.264 3167.487,961.264C3227.134,961.264 3285.361,949.784 3342.167,926.825C3398.974,903.866 3442.052,879.368 3471.402,853.332L3471.402,659.48L3165.357,659.48Z" style="fill:white;fill-rule:nonzero;stroke:white;stroke-width:6.25px;"/>
        </g>
    </g>
    <g transform="matrix(1,0,0,1,-319.521,-39.7775)">
        <g transform="matrix(1,0,0,1,314.313,34.5695)">
            <path d="M3767.507,560.777C3767.507,387.99 3813.899,252.72 3906.683,154.965C3999.467,57.21 4119.234,8.333 4265.984,8.333C4362.082,8.333 4448.712,31.292 4525.874,77.211C4603.036,123.13 4661.855,187.155 4702.329,269.288C4742.804,351.421 4763.041,444.56 4763.041,548.705C4763.041,654.271 4741.739,748.711 4699.134,832.028C4656.529,915.344 4596.172,978.423 4518.063,1021.265C4439.954,1064.107 4355.691,1085.527 4265.274,1085.527C4167.283,1085.527 4079.706,1061.858 4002.544,1014.519C3925.382,967.18 3866.918,902.563 3827.154,820.667C3787.389,738.771 3767.507,652.141 3767.507,560.777ZM3909.523,562.907C3909.523,688.355 3943.252,787.175 4010.71,859.366C4078.168,931.558 4162.786,967.653 4264.564,967.653C4368.236,967.653 4453.564,931.202 4520.549,858.3C4587.533,785.398 4621.026,681.963 4621.026,547.994C4621.026,463.258 4606.706,389.291 4578.066,326.093C4549.426,262.896 4507.531,213.9 4452.382,179.106C4397.232,144.312 4335.337,126.915 4266.696,126.915C4169.178,126.915 4085.27,160.407 4014.972,227.392C3944.674,294.376 3909.525,406.214 3909.525,562.906L3909.523,562.907Z" style="fill:white;fill-rule:nonzero;stroke:white;stroke-width:6.25px;"/>
        </g>
    </g>
</svg>
