{
	"asset":{
		"version":"2.0",
		"generator":"Maxon Cinema 4D 2026.1.2 (#200000219)"
	},
	"scenes":[{
		"nodes":[0]
	}],
	"nodes":[{
		"name":"文本.1",
		"mesh":0
	}],
	"meshes":[{
		"name":"文本.1",
		"primitives":[{
			"attributes":{
				"POSITION":1,
				"NORMAL":2,
				"TEXCOORD_0":3
			},
			"indices":0
		}]
	}],
	"accessors":[{
		"bufferView":0,
		"type":"SCALAR",
		"componentType":5123,
		"count":116808,
		"byteOffset":0,
		"min":[0],
		"max":[22997]
	},
	{
		"bufferView":1,
		"type":"VEC3",
		"componentType":5126,
		"count":22998,
		"byteOffset":0,
		"min":[-190.19631958007813,
		-91.69999694824219,
		-27.5],
		"max":[190.19631958007813,
		91.69999694824219,
		27.5]
	},
	{
		"bufferView":1,
		"type":"VEC3",
		"componentType":5126,
		"count":22998,
		"byteOffset":12,
		"min":[-0.9999997615814209,
		-0.9999997615814209,
		-1.0],
		"max":[0.9999997615814209,
		0.9999997615814209,
		1.0]
	},
	{
		"bufferView":1,
		"type":"VEC2",
		"componentType":5126,
		"count":22998,
		"byteOffset":24,
		"min":[-0.008223805576562882,
		-0.005447668954730034],
		"max":[1.005386471748352,
		1.0011208057403565]
	}],
	"bufferViews":[{
		"buffer":0,
		"byteOffset":0,
		"byteLength":233616,
		"target":34963
	},
	{
		"buffer":0,
		"byteOffset":233616,
		"byteLength":735936,
		"target":34962,
		"byteStride":32
	}],
	"buffers":[{
		"uri":"data:application/octet-stream;base64,",
		"byteLength":969552
	}]
}