<?xml version="1.0" standalone="no"?><!DOCTYPE svg PUBLIC "-//W3C//DTD SVG 1.1//EN" "http://www.w3.org/Graphics/SVG/1.1/DTD/svg11.dtd"><svg t="1779324922305" class="icon" viewBox="0 0 1024 1024" version="1.1" xmlns="http://www.w3.org/2000/svg" p-id="16980" xmlns:xlink="http://www.w3.org/1999/xlink" width="200" height="200"><path d="M315.27 221.13c12.509 0 24.424 2.392 35.744 7.21 11.32 4.786 21.126 11.345 29.471 19.752 8.345 8.373 14.89 18.266 19.648 29.61 4.776 11.38 7.156 23.667 7.156 36.822 0 12.577-2.38 24.427-7.156 35.48-4.759 11.09-11.303 20.803-19.648 29.21-8.345 8.372-18.151 14.969-29.471 19.753-11.32 4.784-23.235 7.175-35.744 7.175-12.493 0-24.407-2.391-35.727-7.175-11.32-4.784-21.143-11.38-29.49-19.752-8.327-8.408-14.889-18.12-19.647-29.21-4.76-11.054-7.14-22.905-7.14-35.48 0-13.156 2.38-25.443 7.14-36.822 4.757-11.344 11.32-21.238 19.648-29.61 8.346-8.408 18.17-14.967 29.49-19.752 11.319-4.82 23.233-7.212 35.726-7.212zM906.663 63.078c14.296 0 26.661 5.219 37.08 15.729 10.417 10.473 15.627 22.578 15.627 36.35v793.91c0 13.772-5.211 25.877-15.627 36.35-10.42 10.474-22.785 15.728-37.08 15.728H117.837c-14.276 0-26.497-5.254-36.627-15.728-10.112-10.473-15.178-22.578-15.178-36.35v-793.91c0-13.772 5.066-25.877 15.178-36.35 10.13-10.51 22.351-15.73 36.627-15.73h788.826z m-26.801 132.897c0-14.967-5.067-27.688-15.179-38.162-10.13-10.473-22.642-15.692-37.528-15.692H197.348c-14.889 0-27.38 5.219-37.511 15.692-10.13 10.474-15.196 23.195-15.196 38.162v316.136c0 17.36 4.326 33.813 12.96 49.398 8.635 15.547 21 29.5 37.078 41.75 16.078 12.286 35.437 21.997 58.06 29.175 22.64 7.21 47.947 11.09 75.94 11.706 39.89 0.577 72.21-4.821 96.924-16.164 24.712-11.383 46.163-25.77 64.314-43.128 18.168-17.361 35.15-36.204 50.92-56.574 15.792-20.366 34.556-39.502 56.296-57.478 21.72-17.977 48.524-33.09 80.393-45.339 31.871-12.285 73.11-18.737 123.725-19.316 8.94-0.616 14.15-0.76 15.628-0.435 1.497 0.29 3.425 0.435 5.805 0.435 2.397 0 7.302 0.144 14.744 0.435 7.443 0.326 21.596 0.144 42.434-0.435V195.976z m0 0" p-id="16981" fill="#e6e6e6"></path></svg>